<?xml version="1.0" encoding="UTF-8" standalone="no"?>
<!-- Created with Inkscape (http://www.inkscape.org/) -->

<svg
   width="200.0px"
   height="200.0px"
   viewBox="0 0 200.0 200.0"
   version="1.1"
   id="SVGRoot"
   sodipodi:docname="logo.svg"
   inkscape:version="1.2.1 (9c6d41e410, 2022-07-14)"
   xmlns:inkscape="http://www.inkscape.org/namespaces/inkscape"
   xmlns:sodipodi="http://sodipodi.sourceforge.net/DTD/sodipodi-0.dtd"
   xmlns="http://www.w3.org/2000/svg"
   xmlns:svg="http://www.w3.org/2000/svg">
  <sodipodi:namedview
     id="namedview1904"
     pagecolor="#505050"
     bordercolor="#eeeeee"
     borderopacity="1"
     inkscape:showpageshadow="0"
     inkscape:pageopacity="0"
     inkscape:pagecheckerboard="0"
     inkscape:deskcolor="#505050"
     inkscape:document-units="px"
     showgrid="true"
     inkscape:zoom="1.829812"
     inkscape:cx="138.26557"
     inkscape:cy="177.61388"
     inkscape:window-width="2505"
     inkscape:window-height="1417"
     inkscape:window-x="47"
     inkscape:window-y="518"
     inkscape:window-maximized="1"
     inkscape:current-layer="layer1">
    <inkscape:grid
       type="xygrid"
       id="grid2390" />
  </sodipodi:namedview>
  <defs
     id="defs1899" />
  <g
     inkscape:label="Layer 1"
     inkscape:groupmode="layer"
     id="layer1">
    <path
       sodipodi:type="star"
       style="fill:#000000;fill-opacity:0;stroke:#ff0000;stroke-width:2.83465;stroke-opacity:1"
       id="path895"
       inkscape:flatsided="false"
       sodipodi:sides="20"
       sodipodi:cx="100"
       sodipodi:cy="100"
       sodipodi:r1="93.005379"
       sodipodi:r2="45.276926"
       sodipodi:arg1="0.93804749"
       sodipodi:arg2="-0.11065722"
       inkscape:rounded="0"
       inkscape:randomized="0"
       d="m 155,175 -10,-80 -15.86817,93.32518 15.2108,-79.1747 -43.93059,83.85399 38.93265,-70.59922 L 71.651914,188.57983 130.49542,133.46684 45.666695,175.48439 118.66105,141.25246 24.999998,155 105,145 11.674824,129.13183 90.849518,144.34263 6.995534,100.41204 77.594749,139.34469 11.420169,71.651914 66.533163,130.49542 24.515615,45.666695 58.747543,118.66105 44.999998,24.999998 55.000002,105 70.868165,11.674824 55.657373,90.849518 99.587959,6.995534 60.65531,77.594749 128.34809,11.420169 69.50458,66.533163 154.33331,24.515615 81.338953,58.747543 175,44.999998 95,55.000002 l 93.32518,15.868163 -79.1747,-15.210792 83.85399,43.930586 -70.59922,-38.932649 66.17458,67.69278 -55.11299,-58.84351 42.01755,84.82873 -34.23193,-72.994357 z"
       inkscape:transform-center-x="0.1273276"
       inkscape:transform-center-y="-8.7600402" />
    <circle
       style="opacity:1;fill:#ffffff;fill-opacity:0.1574468;stroke:#ffffff;stroke-width:2.83464567;stroke-linecap:butt;stroke-dasharray:none;stroke-dashoffset:0;stroke-opacity:1"
       id="path6835"
       cx="100"
       cy="100"
       r="95" />
  </g>
</svg>
